<svg xmlns="http://www.w3.org/2000/svg" xmlns:xlink="http://www.w3.org/1999/xlink" width="500" zoomAndPan="magnify" viewBox="0 0 375 374.999991" height="500" preserveAspectRatio="xMidYMid meet" version="1.0"><defs><clipPath id="cd465d4426"><path d="M 1.707031 0 L 375 0 L 375 375 L 1.707031 375 Z M 1.707031 0 " clip-rule="nonzero"/></clipPath></defs><path fill="#fbf8fc" d="M 61.222656 216.761719 L 90.90625 216.761719 C 95.023438 216.761719 98.359375 213.425781 98.359375 209.308594 L 98.359375 179.625 C 98.359375 175.507812 95.023438 172.167969 90.90625 172.167969 L 61.222656 172.167969 C 57.105469 172.167969 53.765625 175.507812 53.765625 179.625 L 53.765625 209.308594 C 53.765625 213.425781 57.105469 216.761719 61.222656 216.761719 Z M 61.222656 216.761719 " fill-opacity="1" fill-rule="nonzero"/><path fill="#fbf8fc" d="M 61.222656 278.132812 L 90.90625 278.132812 C 95.023438 278.132812 98.359375 274.796875 98.359375 270.679688 L 98.359375 240.996094 C 98.359375 236.878906 95.023438 233.539062 90.90625 233.539062 L 61.222656 233.539062 C 57.105469 233.539062 53.765625 236.878906 53.765625 240.996094 L 53.765625 270.679688 C 53.765625 274.796875 57.105469 278.132812 61.222656 278.132812 Z M 61.222656 278.132812 " fill-opacity="1" fill-rule="nonzero"/><path fill="#fbf8fc" d="M 61.222656 339.503906 L 90.90625 339.503906 C 95.023438 339.503906 98.359375 336.167969 98.359375 332.050781 L 98.359375 302.367188 C 98.359375 298.25 95.023438 294.910156 90.90625 294.910156 L 61.222656 294.910156 C 57.105469 294.910156 53.765625 298.25 53.765625 302.367188 L 53.765625 332.050781 C 53.765625 336.167969 57.105469 339.503906 61.222656 339.503906 Z M 61.222656 339.503906 " fill-opacity="1" fill-rule="nonzero"/><path fill="#fbf8fc" d="M 136.078125 216.761719 L 165.765625 216.761719 C 169.878906 216.761719 173.21875 213.425781 173.21875 209.308594 L 173.21875 179.625 C 173.21875 175.507812 169.882812 172.167969 165.765625 172.167969 L 136.078125 172.167969 C 131.960938 172.167969 128.625 175.507812 128.625 179.625 L 128.625 209.308594 C 128.625 213.425781 131.964844 216.761719 136.078125 216.761719 Z M 136.078125 216.761719 " fill-opacity="1" fill-rule="nonzero"/><path fill="#fbf8fc" d="M 136.078125 278.132812 L 165.765625 278.132812 C 169.878906 278.132812 173.21875 274.796875 173.21875 270.679688 L 173.21875 240.996094 C 173.21875 236.878906 169.882812 233.539062 165.765625 233.539062 L 136.078125 233.539062 C 131.960938 233.539062 128.625 236.878906 128.625 240.996094 L 128.625 270.679688 C 128.625 274.796875 131.964844 278.132812 136.078125 278.132812 Z M 136.078125 278.132812 " fill-opacity="1" fill-rule="nonzero"/><path fill="#fbf8fc" d="M 136.078125 339.503906 L 165.765625 339.503906 C 169.878906 339.503906 173.21875 336.167969 173.21875 332.050781 L 173.21875 302.367188 C 173.21875 298.25 169.882812 294.910156 165.765625 294.910156 L 136.078125 294.910156 C 131.960938 294.910156 128.625 298.25 128.625 302.367188 L 128.625 332.050781 C 128.625 336.167969 131.964844 339.503906 136.078125 339.503906 Z M 136.078125 339.503906 " fill-opacity="1" fill-rule="nonzero"/><path fill="#fbf8fc" d="M 210.9375 216.761719 L 240.625 216.761719 C 244.738281 216.761719 248.078125 213.425781 248.078125 209.308594 L 248.078125 179.625 C 248.078125 175.507812 244.742188 172.167969 240.625 172.167969 L 210.9375 172.167969 C 206.824219 172.167969 203.484375 175.507812 203.484375 179.625 L 203.484375 209.308594 C 203.484375 213.425781 206.820312 216.761719 210.9375 216.761719 Z M 210.9375 216.761719 " fill-opacity="1" fill-rule="nonzero"/><path fill="#fbf8fc" d="M 240.625 294.910156 L 210.9375 294.910156 C 206.824219 294.910156 203.484375 298.25 203.484375 302.367188 L 203.484375 332.050781 C 203.484375 336.167969 206.824219 339.503906 210.9375 339.503906 L 240.625 339.503906 C 244.738281 339.503906 248.078125 336.167969 248.078125 332.050781 L 248.078125 302.367188 C 248.078125 298.25 244.738281 294.910156 240.625 294.910156 Z M 240.625 294.910156 " fill-opacity="1" fill-rule="nonzero"/><path fill="#fbf8fc" d="M 285.796875 216.761719 L 315.480469 216.761719 C 319.597656 216.761719 322.9375 213.425781 322.9375 209.308594 L 322.9375 179.625 C 322.9375 175.507812 319.597656 172.167969 315.480469 172.167969 L 285.796875 172.167969 C 281.679688 172.167969 278.34375 175.507812 278.34375 179.625 L 278.34375 209.308594 C 278.34375 213.425781 281.679688 216.761719 285.796875 216.761719 Z M 285.796875 216.761719 " fill-opacity="1" fill-rule="nonzero"/><path fill="#fbf8fc" d="M 285.796875 278.132812 L 315.480469 278.132812 C 319.597656 278.132812 322.9375 274.796875 322.9375 270.679688 L 322.9375 240.996094 C 322.9375 236.878906 319.597656 233.539062 315.480469 233.539062 L 285.796875 233.539062 C 281.679688 233.539062 278.34375 236.878906 278.34375 240.996094 L 278.34375 270.679688 C 278.34375 274.796875 281.679688 278.132812 285.796875 278.132812 Z M 285.796875 278.132812 " fill-opacity="1" fill-rule="nonzero"/><g clip-path="url(#cd465d4426)"><path fill="#fbf8fc" d="M 287.4375 -0.722656 C 280.445312 -0.722656 274.777344 4.945312 274.777344 11.9375 L 274.777344 37.378906 L 102.578125 37.378906 L 102.578125 11.9375 C 102.578125 4.945312 96.910156 -0.722656 89.917969 -0.722656 C 82.925781 -0.722656 77.257812 4.945312 77.257812 11.9375 L 77.257812 37.378906 L 37.359375 37.378906 C 17.699219 37.378906 1.707031 53.371094 1.707031 73.027344 L 1.707031 339.320312 C 1.707031 358.980469 17.699219 374.972656 37.359375 374.972656 L 339.347656 374.972656 C 359.003906 374.972656 374.996094 358.980469 374.996094 339.320312 L 374.996094 73.027344 C 374.996094 53.371094 359.003906 37.378906 339.347656 37.378906 L 300.097656 37.378906 L 300.097656 11.9375 C 300.097656 4.945312 294.429688 -0.722656 287.4375 -0.722656 Z M 77.257812 55.539062 L 77.257812 71.257812 C 77.257812 78.25 82.925781 83.917969 89.917969 83.917969 C 96.910156 83.917969 102.578125 78.25 102.578125 71.257812 L 102.578125 55.539062 C 107.167969 59.242188 110.101562 64.90625 110.101562 71.257812 C 110.101562 82.40625 101.066406 91.441406 89.917969 91.441406 C 78.769531 91.441406 69.734375 82.40625 69.734375 71.257812 C 69.734375 64.90625 72.671875 59.242188 77.257812 55.539062 Z M 357.433594 339.320312 C 357.433594 349.292969 349.320312 357.40625 339.347656 357.40625 L 37.359375 357.40625 C 27.386719 357.40625 19.273438 349.292969 19.273438 339.320312 L 19.273438 154.269531 L 357.433594 154.269531 Z M 307.621094 71.257812 C 307.621094 82.40625 298.582031 91.441406 287.4375 91.441406 C 276.289062 91.441406 267.253906 82.40625 267.253906 71.257812 C 267.253906 64.90625 270.1875 59.242188 274.773438 55.539062 L 274.773438 71.257812 C 274.773438 78.25 280.441406 83.917969 287.433594 83.917969 C 294.425781 83.917969 300.09375 78.25 300.09375 71.257812 L 300.09375 55.539062 C 304.683594 59.242188 307.621094 64.90625 307.621094 71.257812 Z M 307.621094 71.257812 " fill-opacity="1" fill-rule="nonzero"/></g><path fill="#fbf8fc" d="M 223.433594 282.066406 L 258.804688 246.695312 C 262.234375 243.265625 262.234375 237.703125 258.804688 234.273438 C 255.375 230.84375 249.816406 230.84375 246.386719 234.273438 L 223.433594 257.226562 L 214.214844 248.011719 C 210.785156 244.582031 205.222656 244.578125 201.792969 248.011719 C 198.363281 251.441406 198.363281 257 201.792969 260.429688 Z M 223.433594 282.066406 " fill-opacity="1" fill-rule="nonzero"/></svg>