<svg xmlns="http://www.w3.org/2000/svg" xmlns:xlink="http://www.w3.org/1999/xlink" width="500" zoomAndPan="magnify" viewBox="0 0 375 374.999991" height="500" preserveAspectRatio="xMidYMid meet" version="1.0"><defs><clipPath id="287447e392"><path d="M 3.117188 3 L 372 3 L 372 371 L 3.117188 371 Z M 3.117188 3 " clip-rule="nonzero"/></clipPath></defs><path fill="#fbf8fc" d="M 187.5 54 C 113.796875 54 53.828125 113.96875 53.828125 187.671875 C 61.171875 365.007812 313.855469 364.957031 321.171875 187.671875 C 321.171875 113.96875 261.203125 54 187.5 54 Z M 195.855469 187.671875 C 195.855469 189.886719 194.976562 192.015625 193.40625 193.578125 L 143.28125 243.707031 C 135.542969 251.367188 123.753906 239.671875 131.464844 231.894531 C 131.464844 231.894531 179.144531 184.214844 179.144531 184.214844 L 179.144531 95.773438 C 179.144531 91.160156 182.886719 87.417969 187.5 87.417969 C 192.113281 87.417969 195.855469 91.160156 195.855469 95.773438 Z M 195.855469 187.671875 " fill-opacity="1" fill-rule="nonzero"/><g clip-path="url(#287447e392)"><path fill="#fbf8fc" d="M 187.5 3.875 C 86.152344 3.875 3.699219 86.324219 3.699219 187.671875 C 13.792969 431.507812 361.242188 431.441406 371.300781 187.671875 C 371.300781 86.324219 288.847656 3.875 187.5 3.875 Z M 187.5 338.054688 C 104.582031 338.054688 37.117188 270.589844 37.117188 187.671875 C 45.382812 -11.824219 329.652344 -11.773438 337.882812 187.671875 C 337.882812 270.589844 270.417969 338.054688 187.5 338.054688 Z M 187.5 338.054688 " fill-opacity="1" fill-rule="nonzero"/></g></svg>