<svg xmlns="http://www.w3.org/2000/svg" xmlns:xlink="http://www.w3.org/1999/xlink" width="400" zoomAndPan="magnify" viewBox="0 0 300 374.999991" height="500" preserveAspectRatio="xMidYMid meet" version="1.0"><path fill="#fbf8fc" d="M 150.003906 -0.0429688 C 78.203125 -0.0429688 20.019531 58.148438 20.019531 129.941406 C 20.019531 141.882812 21.65625 153.441406 24.679688 164.417969 C 27.296875 173.980469 30.960938 183.117188 35.585938 191.667969 C 36.703125 193.726562 37.882812 195.761719 39.101562 197.761719 L 137.101562 367.507812 C 137.308594 367.871094 137.5 368.253906 137.730469 368.609375 C 140.425781 372.5 144.910156 375.042969 149.996094 375.042969 C 155.09375 375.042969 159.59375 372.464844 162.28125 368.558594 L 162.699219 367.835938 L 260.878906 197.792969 L 264.421875 191.652344 C 269.039062 183.105469 272.699219 173.96875 275.328125 164.417969 C 278.335938 153.441406 279.980469 141.882812 279.980469 129.941406 C 279.980469 58.148438 221.789062 -0.0429688 150.003906 -0.0429688 Z M 149.996094 184.433594 C 119.890625 184.433594 95.488281 160.03125 95.488281 129.941406 C 95.488281 99.835938 119.886719 75.429688 149.996094 75.429688 C 180.097656 75.429688 204.484375 99.835938 204.484375 129.941406 C 204.484375 160.03125 180.097656 184.433594 149.996094 184.433594 Z M 149.996094 184.433594 " fill-opacity="1" fill-rule="nonzero"/></svg>